<svg width="170" height="26" viewBox="0 0 170 26" fill="none" xmlns="http://www.w3.org/2000/svg">
<path d="M23.7185 5.79464C23.5428 5.66811 23.336 5.5947 23.115 5.5947C22.7355 5.5947 22.3986 5.80981 22.1848 6.14516C22.0402 6.3704 21.9525 6.62095 21.8789 6.87022C21.6621 7.60036 21.4923 8.97202 21.4101 10.6664C21.3847 11.1966 20.9004 11.6205 20.3054 11.6205C19.7108 11.6205 19.2193 11.1902 19.2052 10.655C19.1203 7.44472 18.8666 4.92151 18.5453 4.09774C18.371 3.3651 17.9235 2.84375 17.3983 2.84375C16.8728 2.84375 16.4255 3.3651 16.2513 4.09901C15.9327 4.91897 15.6804 7.41181 15.5941 10.5892C15.5786 11.1611 15.0589 11.6205 14.4186 11.6205C13.7786 11.6205 13.2661 11.1675 13.2376 10.6006C13.1541 8.93658 12.9857 7.59022 12.7719 6.87022C12.6983 6.62095 12.6103 6.3729 12.4687 6.14896C12.2549 5.81235 11.9164 5.5947 11.5355 5.5947C11.3176 5.5947 11.1135 5.66557 10.9395 5.78958C10.4394 6.14389 10.3036 6.76645 10.1861 7.32575C9.93965 8.5089 9.77535 10.5943 9.77535 12.9707C9.77535 15.3471 9.93965 17.4324 10.1861 18.6155C10.3022 19.1761 10.4394 19.7987 10.9395 20.153C11.1135 20.277 11.3176 20.3479 11.5355 20.3479C11.9164 20.3479 12.2549 20.1302 12.4687 19.7936C12.6103 19.5696 12.6983 19.3204 12.7719 19.0724C12.9857 18.3524 13.1541 17.006 13.2362 15.342C13.2647 14.7751 13.7814 14.3221 14.4159 14.3221C15.0504 14.3221 15.5759 14.7814 15.5913 15.3534C15.6763 18.5599 15.9299 21.0805 16.2499 21.9043C16.4239 22.6369 16.8714 23.1596 17.3969 23.1596C17.9221 23.1596 18.3696 22.6382 18.5439 21.9055C18.8666 21.0755 19.1217 18.5257 19.2052 15.2876C19.2193 14.7523 19.705 14.3221 20.3041 14.3221C20.9031 14.3221 21.3819 14.746 21.4073 15.2762C21.4895 16.9705 21.6593 18.3422 21.8759 19.0724C21.9497 19.3229 22.0374 19.5734 22.1818 19.7974C22.3956 20.1327 22.7341 20.3479 23.1122 20.3479C23.3332 20.3479 23.5398 20.2745 23.7154 20.1479C24.2097 19.7924 24.3444 19.1749 24.4603 18.6181C24.7067 17.4362 24.871 15.3483 24.871 12.9707C24.871 10.593 24.7067 8.5051 24.4603 7.32321C24.3444 6.76645 24.2083 6.14896 23.7154 5.79338L23.7185 5.79464Z" fill="#0D0E10"/>
<path d="M29.4169 13.3617C29.4169 11.6711 29.1802 10.2513 28.8615 9.85909C28.7216 9.57311 28.3659 9.37063 27.9496 9.37063C27.5334 9.37063 27.1766 9.57437 27.0364 9.86159C26.7191 10.2589 26.484 11.6749 26.484 13.3617C26.484 15.0484 26.7191 16.4644 27.0364 16.8605C27.1766 17.1477 27.532 17.3514 27.9496 17.3514C28.3676 17.3514 28.7216 17.149 28.8615 16.863C29.1802 16.4707 29.4169 15.0509 29.4169 13.3617Z" fill="#0D0E10"/>
<path d="M6.7039 9.3719C7.12015 9.3719 7.47584 9.57437 7.61579 9.86035C7.93442 10.2539 8.17117 11.6724 8.17117 13.3629C8.17117 15.0535 7.93442 16.4733 7.61579 16.8655C7.47584 17.1515 7.12181 17.354 6.7039 17.354C6.28626 17.354 5.93085 17.1502 5.79062 16.863C5.47338 16.4657 5.23828 15.0497 5.23828 13.3629C5.23828 11.6762 5.47338 10.2589 5.79062 9.86286C5.93085 9.57564 6.28764 9.3719 6.7039 9.3719Z" fill="#0D0E10"/>
<path d="M163.455 7.47656V19.1828H162.278V7.47656H163.455Z" fill="#001AFF"/>
<path d="M152.149 19.1828H150.956L155.255 7.47656H156.711L161.06 19.1828H159.833L158.689 16.0764H153.294L152.149 19.1828ZM155.828 9.12787L153.653 15.0464H158.313L156.122 9.12787C156.073 8.96437 155.991 8.76818 155.975 8.65373C155.959 8.75183 155.893 8.96437 155.828 9.12787Z" fill="#001AFF"/>
<path d="M142.024 19.1831C139.164 19.1831 137.25 17.1284 137.25 14.0665C137.25 11.0247 139.144 8.92969 141.923 8.92969C144.562 8.92969 146.355 10.8031 146.355 13.5629V14.2478H138.6C138.7 16.6248 139.949 17.9946 142.044 17.9946C143.636 17.9946 144.663 17.3097 145.026 16.0205H146.355C145.831 18.0752 144.321 19.1831 142.024 19.1831ZM141.923 10.1182C140.09 10.1182 138.882 11.3269 138.64 13.2406H144.965C144.965 11.3671 143.757 10.1182 141.923 10.1182Z" fill="#001AFF"/>
<path d="M127.288 14.0866C127.288 11.0247 129.161 8.92969 132.001 8.92969C134.258 8.92969 135.909 10.2391 136.292 12.2535H134.902C134.54 10.9038 133.371 10.1585 132.021 10.1585C130.047 10.1585 128.657 11.6693 128.657 14.0665C128.657 16.3831 129.947 17.9342 131.921 17.9342C133.371 17.9342 134.54 17.1284 134.922 15.8794H136.332C135.869 17.8737 134.137 19.1831 131.921 19.1831C129.161 19.1831 127.288 17.1485 127.288 14.0866Z" fill="#001AFF"/>
<path d="M124.873 6.51236C124.309 6.51236 123.845 6.04904 123.845 5.485C123.845 4.92096 124.309 4.4375 124.873 4.4375C125.437 4.4375 125.92 4.92096 125.92 5.485C125.92 6.04904 125.437 6.51236 124.873 6.51236ZM124.188 18.9413V9.19154H125.578V18.9413H124.188Z" fill="#001AFF"/>
<path d="M112.557 14.0665C112.557 11.0851 114.652 8.92969 117.513 8.92969C120.373 8.92969 122.468 11.0851 122.468 14.0665C122.468 17.0277 120.373 19.1831 117.513 19.1831C114.652 19.1831 112.557 17.0277 112.557 14.0665ZM113.967 14.0463C113.967 16.3428 115.418 17.9342 117.513 17.9342C119.587 17.9342 121.058 16.3428 121.058 14.0463C121.058 11.7902 119.587 10.1786 117.513 10.1786C115.418 10.1786 113.967 11.7902 113.967 14.0463Z" fill="#001AFF"/>
<path d="M107.101 18.9451L103.112 9.19531H104.603L107.121 15.4803C107.383 16.1854 107.645 16.8501 107.826 17.4947C108.007 16.83 108.269 16.1854 108.551 15.4803L111.11 9.19531H112.54L108.491 18.9451H107.101Z" fill="#001AFF"/>
<path d="M88.9312 14.1227C88.9312 11.1162 91.0981 9.04688 94.0851 9.04688C97.072 9.04688 99.239 11.1162 99.239 14.1227C99.239 17.1291 97.072 19.1985 94.0851 19.1985C91.0981 19.1985 88.9312 17.1291 88.9312 14.1227ZM91.3129 14.1227C91.3129 15.8797 92.4452 17.0706 94.0851 17.0706C95.7249 17.0706 96.8572 15.8797 96.8572 14.1227C96.8572 12.3657 95.7249 11.1748 94.0851 11.1748C92.4452 11.1748 91.3129 12.3657 91.3129 14.1227Z" fill="#0D0E10"/>
<path d="M86.3343 7.3776C85.5144 7.3776 84.8701 6.73336 84.8701 5.93295C84.8701 5.13253 85.5144 4.50781 86.3343 4.50781C87.1152 4.50781 87.7594 5.13253 87.7594 5.93295C87.7594 6.73336 87.1152 7.3776 86.3343 7.3776ZM85.1434 18.9544V9.31032H87.5252V18.9544H85.1434Z" fill="#0D0E10"/>
<path d="M74.3311 14.1188C74.3311 11.1319 76.3028 9.02344 79.1531 9.02344C81.7886 9.02344 83.5847 10.4876 83.8385 12.8108H81.4567C81.1834 11.7175 80.383 11.1514 79.2507 11.1514C77.7279 11.1514 76.7128 12.3032 76.7128 14.1188C76.7128 15.9344 77.6499 17.0667 79.1726 17.0667C80.3635 17.0667 81.2029 16.481 81.4567 15.4268H83.858C83.5651 17.6719 81.691 19.2141 79.1726 19.2141C76.2442 19.2141 74.3311 17.1838 74.3311 14.1188Z" fill="#0D0E10"/>
<path d="M66.2719 18.9603H63.8901V9.31627H66.0962L66.2914 10.5657C66.8966 9.58959 68.0679 9.02344 69.3759 9.02344C71.7967 9.02344 73.0461 10.5267 73.0461 13.0255V18.9603H70.6644V13.5917C70.6644 11.9713 69.864 11.1904 68.6341 11.1904C67.1699 11.1904 66.2719 12.2056 66.2719 13.7674V18.9603Z" fill="#0D0E10"/>
<path d="M57.8249 19.2141C54.9551 19.2141 52.9443 17.1252 52.9443 14.1383C52.9443 11.1123 54.9161 9.02344 57.7468 9.02344C60.6362 9.02344 62.4713 10.9562 62.4713 13.9626V14.6849L55.2089 14.7045C55.3846 16.4029 56.2827 17.2619 57.864 17.2619C59.172 17.2619 60.031 16.7543 60.3043 15.8368H62.5103C62.1003 17.9452 60.3433 19.2141 57.8249 19.2141ZM57.7664 10.9757C56.3608 10.9757 55.5018 11.7371 55.2675 13.1817H60.1091C60.1091 11.8542 59.1915 10.9757 57.7664 10.9757Z" fill="#0D0E10"/>
<path d="M51.5004 18.9543H49.1382V4.42969H51.5004V18.9543Z" fill="#0D0E10"/>
<path d="M45.9354 7.3776C45.1154 7.3776 44.4712 6.73336 44.4712 5.93295C44.4712 5.13253 45.1154 4.50781 45.9354 4.50781C46.7163 4.50781 47.3605 5.13253 47.3605 5.93295C47.3605 6.73336 46.7163 7.3776 45.9354 7.3776ZM44.7445 18.9544V9.31032H47.1262V18.9544H44.7445Z" fill="#0D0E10"/>
<path d="M35.4546 16.032H37.7192C37.7387 16.8714 38.3634 17.3985 39.4567 17.3985C40.5695 17.3985 41.1747 16.9495 41.1747 16.2467C41.1747 15.7587 40.9209 15.4073 40.0619 15.212L38.3244 14.8021C36.5869 14.4116 35.7474 13.5917 35.7474 12.0494C35.7474 10.1557 37.3483 9.02344 39.5738 9.02344C41.7408 9.02344 43.205 10.2729 43.2245 12.147H40.9599C40.9404 11.3271 40.3938 10.8 39.4762 10.8C38.5391 10.8 37.9925 11.2295 37.9925 11.9518C37.9925 12.4984 38.422 12.8498 39.2419 13.0451L40.9794 13.455C42.5998 13.8259 43.4197 14.5678 43.4197 16.0515C43.4197 18.0037 41.7603 19.2141 39.3786 19.2141C36.9773 19.2141 35.4546 17.9256 35.4546 16.032Z" fill="#0D0E10"/>
</svg>
